<svg data-v-423bf9ae="" xmlns="http://www.w3.org/2000/svg" viewBox="0 0 550 95" class="iconLeft"><!----><!----><!----><g data-v-423bf9ae="" id="a2fc57e7-7c5b-4bfe-a336-c401ea907996" fill="#000000" transform="matrix(4.51127813079263,0,0,4.51127813079263,113.05939922431514,2.495906093444191)"><path d="M5.56 9.84L8.97 3.92L6.85 3.92L4.66 8.13L2.41 3.92L0.22 3.92L3.64 9.84L3.64 13.58L5.56 13.58ZM11.80 5.94C9.32 5.94 7.94 7.59 7.94 9.86C7.94 12.11 9.32 13.78 11.80 13.78C14.28 13.78 15.67 12.11 15.67 9.86C15.67 7.59 14.28 5.94 11.80 5.94ZM11.80 12.42C10.64 12.42 9.94 11.45 9.94 9.86C9.94 8.25 10.64 7.29 11.80 7.29C12.96 7.29 13.66 8.25 13.66 9.86C13.66 11.45 12.96 12.42 11.80 12.42ZM23.80 6.13L21.87 6.13L21.87 9.93C21.87 11.61 21.20 12.40 20.23 12.40C19.33 12.40 18.89 11.91 18.79 11.14C18.75 10.77 18.73 10.36 18.73 10.12L18.73 6.13L16.80 6.13L16.80 10.53C16.80 11.13 16.81 11.51 16.87 11.89C17.04 12.91 17.96 13.78 19.50 13.78C20.22 13.78 20.75 13.64 21.29 13.27L21.87 12.32L21.87 13.58L23.80 13.58ZM31.58 8.37C32.55 8.04 33.08 7.38 33.08 6.38C33.08 5.08 32.21 4.17 30.65 3.98C30.17 3.92 29.89 3.92 29.40 3.92L25.94 3.92L25.94 13.58L29.46 13.58C30.00 13.58 30.31 13.58 30.80 13.52C32.09 13.34 33.45 12.49 33.45 10.70C33.45 9.45 32.83 8.69 31.58 8.37ZM27.87 5.43L29.27 5.43C29.50 5.43 29.75 5.45 29.97 5.47C30.62 5.56 31.07 5.91 31.07 6.64C31.07 7.34 30.72 7.73 30.02 7.84C29.79 7.87 29.57 7.88 29.33 7.88L27.87 7.88ZM30.20 12.04C30.02 12.05 29.78 12.05 29.55 12.05L27.87 12.05L27.87 9.32L29.48 9.32C29.71 9.32 29.93 9.34 30.17 9.37C30.87 9.44 31.42 9.81 31.42 10.71C31.42 11.52 30.87 11.98 30.20 12.04ZM41.54 9.70C41.54 7.67 40.33 5.94 38.05 5.94C35.77 5.94 34.27 7.60 34.27 9.88C34.27 12.50 35.85 13.78 37.90 13.78C39.65 13.78 41.05 12.89 41.43 11.16L39.49 11.16C39.37 11.96 38.77 12.42 37.94 12.42C37.04 12.42 36.34 11.93 36.22 10.36L41.51 10.36C41.54 10.11 41.54 9.88 41.54 9.70ZM37.97 7.29C38.89 7.29 39.42 7.92 39.55 9.10L36.27 9.10C36.44 7.87 37.07 7.29 37.97 7.29ZM54.32 3.92L52.40 3.92L52.40 8.08L47.88 8.08L47.88 3.92L45.95 3.92L45.95 13.58L47.88 13.58L47.88 9.62L52.40 9.62L52.40 13.58L54.32 13.58ZM62.87 9.70C62.87 7.67 61.67 5.94 59.39 5.94C57.11 5.94 55.61 7.60 55.61 9.88C55.61 12.50 57.19 13.78 59.23 13.78C60.98 13.78 62.38 12.89 62.76 11.16L60.83 11.16C60.70 11.96 60.10 12.42 59.28 12.42C58.38 12.42 57.68 11.93 57.55 10.36L62.85 10.36C62.87 10.11 62.87 9.88 62.87 9.70ZM59.30 7.29C60.23 7.29 60.76 7.92 60.89 9.10L57.61 9.10C57.78 7.87 58.41 7.29 59.30 7.29ZM68.53 13.58L70.42 13.58C70.31 12.75 70.28 12.25 70.28 11.69L70.28 9.28C70.28 8.88 70.27 8.48 70.24 8.13C70.13 6.85 69.34 5.94 67.26 5.94C65.48 5.94 64.12 6.89 64.06 8.57L65.94 8.55C66.00 7.74 66.42 7.29 67.19 7.29C67.94 7.29 68.28 7.67 68.33 8.19C68.36 8.44 68.36 8.67 68.36 8.89L68.36 9.04L67.89 9.04C65.18 9.04 63.78 9.97 63.78 11.61C63.78 13.02 64.89 13.78 66.18 13.78C66.88 13.78 67.51 13.64 68.03 13.29L68.39 12.49ZM66.92 12.42C66.23 12.42 65.79 12.11 65.79 11.45C65.79 10.47 66.82 10.12 68.36 10.23L68.36 10.84C68.36 11.87 67.70 12.42 66.92 12.42ZM73.95 3.29L72.02 3.29L72.02 11.19C72.02 11.68 72.02 12.03 72.04 12.36C72.09 13.33 72.69 13.68 73.64 13.68C74.07 13.68 74.45 13.66 74.83 13.62L74.83 12.29C74.17 12.33 74.00 12.21 73.96 11.83C73.95 11.63 73.95 11.44 73.95 11.14ZM78.29 7.46L79.83 7.46L79.83 6.19L78.29 6.19L78.29 4.35L76.36 4.35L76.36 6.19L75.26 6.19L75.26 7.46L76.36 7.46L76.36 11.13C76.36 11.55 76.36 11.87 76.38 12.21C76.47 13.26 76.99 13.73 78.43 13.73C78.86 13.73 79.27 13.71 79.70 13.64L79.70 12.38C78.62 12.46 78.36 12.29 78.30 11.56C78.29 11.37 78.29 11.16 78.29 10.91ZM87.98 8.02C87.82 6.72 86.91 5.94 85.33 5.94C84.62 5.94 84.07 6.08 83.54 6.45L82.96 7.34L82.96 3.22L81.03 3.22L81.03 13.58L82.96 13.58L82.96 10.18C82.96 8.11 83.71 7.31 84.64 7.29C85.58 7.29 86.02 7.83 86.07 8.61C86.10 8.99 86.10 9.34 86.10 9.65L86.10 13.58L88.03 13.58L88.03 9.38C88.03 8.78 88.02 8.40 87.98 8.02ZM96.78 6.13L94.67 6.13L92.85 12.11L91.00 6.13L88.84 6.13L91.88 13.93L91.78 14.17C91.48 14.91 91.04 15.16 90.38 15.16C90.19 15.16 90.01 15.16 89.81 15.13L89.81 16.46C90.09 16.51 90.33 16.52 90.68 16.52C92.19 16.52 93.00 15.88 93.79 13.86Z"></path></g><defs data-v-423bf9ae=""><linearGradient data-v-423bf9ae="" gradientTransform="rotate(25)" id="e80647cb-a48c-43e5-8e11-039b9deecff1" x1="0%" y1="0%" x2="100%" y2="0%"><stop data-v-423bf9ae="" offset="0%" style="stop-color: rgb(65, 226, 150); stop-opacity: 1;"></stop><stop data-v-423bf9ae="" offset="100%" style="stop-color: rgb(0, 196, 238); stop-opacity: 1;"></stop></linearGradient></defs><g data-v-423bf9ae="" id="4b6742cb-49b0-4734-90a9-16aa10350b69" transform="matrix(1.0222222222222221,0,0,1.0222222222222221,-1.0703828599717866,-1.0666666666666629)" stroke="none" fill="url(#e80647cb-a48c-43e5-8e11-039b9deecff1)"><path d="M44 33h2a4 4 0 0 0-8 0h2a2 2 0 0 1 4 0zM56 29a4.005 4.005 0 0 0-4 4h2a2 2 0 0 1 4 0h2a4.005 4.005 0 0 0-4-4z"></path><path d="M31 26h2v9a15.993 15.993 0 0 0 7 13.218V55h-8.78A11.983 11.983 0 0 0 19 67v14h2V67a10.004 10.004 0 0 1 10.22-10H41a1 1 0 0 0 1-1v-6.635a15.804 15.804 0 0 0 14 0V56a1 1 0 0 0 1 1h9.78A10.004 10.004 0 0 1 77 67h2a11.983 11.983 0 0 0-12.22-12H58v-6.782a16.113 16.113 0 0 0 5.109-5.686A10.933 10.933 0 0 0 73.925 52H75a1 1 0 0 0 1-1V22.925A10.937 10.937 0 0 0 65.075 12h-2.026C59.76 8.79 54.957 7 49 7c-11.72 0-19 6.897-19 18a1 1 0 0 0 1 1zm18 23a14.016 14.016 0 0 1-14-14v-9h28v9a14.016 14.016 0 0 1-14 14zm16.075-35A8.935 8.935 0 0 1 74 22.925V50h-.075A8.935 8.935 0 0 1 65 41.075V26h2a1 1 0 0 0 1-1 18.488 18.488 0 0 0-3.242-11zM49 9c10.286 0 16.566 5.585 16.979 15H62v-5h-2v5h-6v-5h-2v5h-6v-5h-2v5h-6v-5h-2v5h-3.979C32.434 14.585 38.714 9 49 9z"></path><path d="M49 42a4.01 4.01 0 0 1-3.92-3.2l-1.96.4a6.001 6.001 0 0 0 11.76 0l-1.96-.4A4.01 4.01 0 0 1 49 42zM40 74h5.787l9.85 9.85a1 1 0 0 0 1.413 0L66.9 74H73v-2h-4.68a6.997 6.997 0 0 0-11.27-7.95l-.707.707-.707-.707A6.996 6.996 0 0 0 44.367 72H40zm16.343 7.728L48.615 74H52a1 1 0 0 0 .895-.553l1.164-2.328 3.073 5.377a1 1 0 0 0 .834.504H58a1 1 0 0 0 .832-.445L60.535 74h3.536zm-9.192-16.264a5 5 0 0 1 7.07 0l1.415 1.414a1 1 0 0 0 1.414 0l1.414-1.414A4.988 4.988 0 0 1 65.973 72H60a1 1 0 0 0-.832.445L58.065 74.1l-3.197-5.595a.961.961 0 0 0-.896-.504 1 1 0 0 0-.867.553L51.382 72h-4.668a4.992 4.992 0 0 1 .437-6.536zM13 24A11 11 0 1 0 2 13a11.012 11.012 0 0 0 11 11zm0-20a9 9 0 1 1-9 9 9.01 9.01 0 0 1 9-9z"></path><path d="M12 19h2v-5h5v-2h-5V7h-2v5H7v2h5v5zM16 36a9 9 0 1 0 9 9 9.01 9.01 0 0 0-9-9zm0 16a7 7 0 1 1 7-7 7.008 7.008 0 0 1-7 7z"></path><path d="M17 40h-2v4h-4v2h4v4h2v-4h4v-2h-4v-4zM87 52a7 7 0 1 0-7-7 7.008 7.008 0 0 0 7 7zm0-12a5 5 0 1 1-5 5 5.006 5.006 0 0 1 5-5z"></path><path d="M86 48h2v-2h2v-2h-2v-2h-2v2h-2v2h2v2zM85 20a9 9 0 1 0-9-9 9.01 9.01 0 0 0 9 9zm0-16a7 7 0 1 1-7 7 7.008 7.008 0 0 1 7-7z"></path><path d="M84 16h2v-4h4v-2h-4V6h-2v4h-4v2h4v4zM3 91h3v2a1 1 0 0 0 1 1h4a1 1 0 0 0 1-1v-4h13v4a1 1 0 0 0 1 1h4a1 1 0 0 0 1-1v-2h3a1 1 0 0 0 1-1v-8a1 1 0 0 0-1-1h-3v-2a1 1 0 0 0-1-1h-4a1 1 0 0 0-1 1v4H12v-4a1 1 0 0 0-1-1H7a1 1 0 0 0-1 1v2H3a1 1 0 0 0-1 1v8a1 1 0 0 0 1 1zm30-8v6h-2v-6zm-6-3h2v12h-2V80zm-2 5v2H12v-2zM8 80h2v12H8V80zm-4 3h2v6H4zM92.629 78.75a7.172 7.172 0 0 0-4.778-3.03 7.47 7.47 0 0 0-3.965.461c.295-2.78 1.149-4.929 2.75-8.168l-1.792-.887c-.21.424-.402.825-.59 1.22a6.636 6.636 0 0 0-.98-.382 5.357 5.357 0 0 0-3.965.146 2.386 2.386 0 0 0-1.217 1.411c-.494 1.638.984 3.433 3.432 4.174a7.097 7.097 0 0 0 .717.17 18.905 18.905 0 0 0-.357 2.214 7.456 7.456 0 0 0-3.735-.359 7.172 7.172 0 0 0-4.778 3.03 7.9 7.9 0 0 0-1.205 6.11C72.955 88.79 76.509 94 80.5 94a4.56 4.56 0 0 0 .734-.06 7.12 7.12 0 0 0 1.096-.268 2.184 2.184 0 0 1 1.336 0 7.09 7.09 0 0 0 1.096.267c4.277.708 8.234-4.909 9.071-9.078a7.9 7.9 0 0 0-1.205-6.11zm-10.52-6.967c-1.46-.442-2.201-1.354-2.102-1.684.031-.102.18-.19.242-.224a3.424 3.424 0 0 1 2.449.004 4.737 4.737 0 0 1 .745.29 25.655 25.655 0 0 0-.666 1.773 5.15 5.15 0 0 1-.667-.159zm9.765 12.684c-.674 3.356-3.81 7.988-6.79 7.498a5.108 5.108 0 0 1-.79-.193 4.168 4.168 0 0 0-2.59 0 5.139 5.139 0 0 1-.79.194c-2.975.48-6.115-4.143-6.787-7.499a5.918 5.918 0 0 1 .889-4.578 5.192 5.192 0 0 1 3.455-2.195 5.307 5.307 0 0 1 .853-.069 5.76 5.76 0 0 1 3.132.953 1 1 0 0 0 1.088 0 5.65 5.65 0 0 1 3.985-.884 5.192 5.192 0 0 1 3.455 2.195 5.918 5.918 0 0 1 .89 4.578zM73 92h2v2h-2zM70 89h2v2h-2zM67 92h2v2h-2zM60 92h2v2h-2zM56 90h2v2h-2zM50 92h2v2h-2zM66 86h2v2h-2zM63 89h2v2h-2z"></path></g><!----></svg>