<svg data-v-423bf9ae="" xmlns="http://www.w3.org/2000/svg" viewBox="0 0 435.6090052954737 60" class="font"><!----><!----><!----><g data-v-423bf9ae="" id="63cef6a8-483c-406d-ad38-9799b1ecbbf3" fill="white" transform="matrix(4.51127813079263,0,0,4.51127813079263,-0.9924806584973567,-14.526316425476708)"><path d="M5.56 9.84L8.97 3.92L6.85 3.92L4.66 8.13L2.41 3.92L0.22 3.92L3.64 9.84L3.64 13.58L5.56 13.58ZM11.80 5.94C9.32 5.94 7.94 7.59 7.94 9.86C7.94 12.11 9.32 13.78 11.80 13.78C14.28 13.78 15.67 12.11 15.67 9.86C15.67 7.59 14.28 5.94 11.80 5.94ZM11.80 12.42C10.64 12.42 9.94 11.45 9.94 9.86C9.94 8.25 10.64 7.29 11.80 7.29C12.96 7.29 13.66 8.25 13.66 9.86C13.66 11.45 12.96 12.42 11.80 12.42ZM23.80 6.13L21.87 6.13L21.87 9.93C21.87 11.61 21.20 12.40 20.23 12.40C19.33 12.40 18.89 11.91 18.79 11.14C18.75 10.77 18.73 10.36 18.73 10.12L18.73 6.13L16.80 6.13L16.80 10.53C16.80 11.13 16.81 11.51 16.87 11.89C17.04 12.91 17.96 13.78 19.50 13.78C20.22 13.78 20.75 13.64 21.29 13.27L21.87 12.32L21.87 13.58L23.80 13.58ZM31.58 8.37C32.55 8.04 33.08 7.38 33.08 6.38C33.08 5.08 32.21 4.17 30.65 3.98C30.17 3.92 29.89 3.92 29.40 3.92L25.94 3.92L25.94 13.58L29.46 13.58C30.00 13.58 30.31 13.58 30.80 13.52C32.09 13.34 33.45 12.49 33.45 10.70C33.45 9.45 32.83 8.69 31.58 8.37ZM27.87 5.43L29.27 5.43C29.50 5.43 29.75 5.45 29.97 5.47C30.62 5.56 31.07 5.91 31.07 6.64C31.07 7.34 30.72 7.73 30.02 7.84C29.79 7.87 29.57 7.88 29.33 7.88L27.87 7.88ZM30.20 12.04C30.02 12.05 29.78 12.05 29.55 12.05L27.87 12.05L27.87 9.32L29.48 9.32C29.71 9.32 29.93 9.34 30.17 9.37C30.87 9.44 31.42 9.81 31.42 10.71C31.42 11.52 30.87 11.98 30.20 12.04ZM41.54 9.70C41.54 7.67 40.33 5.94 38.05 5.94C35.77 5.94 34.27 7.60 34.27 9.88C34.27 12.50 35.85 13.78 37.90 13.78C39.65 13.78 41.05 12.89 41.43 11.16L39.49 11.16C39.37 11.96 38.77 12.42 37.94 12.42C37.04 12.42 36.34 11.93 36.22 10.36L41.51 10.36C41.54 10.11 41.54 9.88 41.54 9.70ZM37.97 7.29C38.89 7.29 39.42 7.92 39.55 9.10L36.27 9.10C36.44 7.87 37.07 7.29 37.97 7.29ZM54.32 3.92L52.40 3.92L52.40 8.08L47.88 8.08L47.88 3.92L45.95 3.92L45.95 13.58L47.88 13.58L47.88 9.62L52.40 9.62L52.40 13.58L54.32 13.58ZM62.87 9.70C62.87 7.67 61.67 5.94 59.39 5.94C57.11 5.94 55.61 7.60 55.61 9.88C55.61 12.50 57.19 13.78 59.23 13.78C60.98 13.78 62.38 12.89 62.76 11.16L60.83 11.16C60.70 11.96 60.10 12.42 59.28 12.42C58.38 12.42 57.68 11.93 57.55 10.36L62.85 10.36C62.87 10.11 62.87 9.88 62.87 9.70ZM59.30 7.29C60.23 7.29 60.76 7.92 60.89 9.10L57.61 9.10C57.78 7.87 58.41 7.29 59.30 7.29ZM68.53 13.58L70.42 13.58C70.31 12.75 70.28 12.25 70.28 11.69L70.28 9.28C70.28 8.88 70.27 8.48 70.24 8.13C70.13 6.85 69.34 5.94 67.26 5.94C65.48 5.94 64.12 6.89 64.06 8.57L65.94 8.55C66.00 7.74 66.42 7.29 67.19 7.29C67.94 7.29 68.28 7.67 68.33 8.19C68.36 8.44 68.36 8.67 68.36 8.89L68.36 9.04L67.89 9.04C65.18 9.04 63.78 9.97 63.78 11.61C63.78 13.02 64.89 13.78 66.18 13.78C66.88 13.78 67.51 13.64 68.03 13.29L68.39 12.49ZM66.92 12.42C66.23 12.42 65.79 12.11 65.79 11.45C65.79 10.47 66.82 10.12 68.36 10.23L68.36 10.84C68.36 11.87 67.70 12.42 66.92 12.42ZM73.95 3.29L72.02 3.29L72.02 11.19C72.02 11.68 72.02 12.03 72.04 12.36C72.09 13.33 72.69 13.68 73.64 13.68C74.07 13.68 74.45 13.66 74.83 13.62L74.83 12.29C74.17 12.33 74.00 12.21 73.96 11.83C73.95 11.63 73.95 11.44 73.95 11.14ZM78.29 7.46L79.83 7.46L79.83 6.19L78.29 6.19L78.29 4.35L76.36 4.35L76.36 6.19L75.26 6.19L75.26 7.46L76.36 7.46L76.36 11.13C76.36 11.55 76.36 11.87 76.38 12.21C76.47 13.26 76.99 13.73 78.43 13.73C78.86 13.73 79.27 13.71 79.70 13.64L79.70 12.38C78.62 12.46 78.36 12.29 78.30 11.56C78.29 11.37 78.29 11.16 78.29 10.91ZM87.98 8.02C87.82 6.72 86.91 5.94 85.33 5.94C84.62 5.94 84.07 6.08 83.54 6.45L82.96 7.34L82.96 3.22L81.03 3.22L81.03 13.58L82.96 13.58L82.96 10.18C82.96 8.11 83.71 7.31 84.64 7.29C85.58 7.29 86.02 7.83 86.07 8.61C86.10 8.99 86.10 9.34 86.10 9.65L86.10 13.58L88.03 13.58L88.03 9.38C88.03 8.78 88.02 8.40 87.98 8.02ZM96.78 6.13L94.67 6.13L92.85 12.11L91.00 6.13L88.84 6.13L91.88 13.93L91.78 14.17C91.48 14.91 91.04 15.16 90.38 15.16C90.19 15.16 90.01 15.16 89.81 15.13L89.81 16.46C90.09 16.51 90.33 16.52 90.68 16.52C92.19 16.52 93.00 15.88 93.79 13.86Z"></path></g><!----><!----></svg>